<svg width="157" height="125" viewBox="0 0 157 125" fill="none" xmlns="http://www.w3.org/2000/svg">
<path d="M16.0625 103.75C10.7292 103.75 6.70833 102.438 4 99.8125C1.33333 97.1875 0 93.1458 0 87.6875V16.0625C0 10.6042 1.33333 6.5625 4 3.9375C6.70833 1.3125 10.7292 0 16.0625 0H140.188C145.521 0 149.521 1.3125 152.188 3.9375C154.896 6.5625 156.25 10.6042 156.25 16.0625V87.6875C156.25 93.1458 154.896 97.1875 152.188 99.8125C149.521 102.438 145.521 103.75 140.188 103.75H16.0625ZM46.6875 124.938C45.3125 124.938 44.125 124.438 43.125 123.438C42.125 122.438 41.625 121.25 41.625 119.875C41.625 118.458 42.125 117.25 43.125 116.25C44.125 115.292 45.3125 114.812 46.6875 114.812H109.562C110.938 114.812 112.125 115.292 113.125 116.25C114.125 117.25 114.625 118.458 114.625 119.875C114.625 121.25 114.125 122.438 113.125 123.438C112.125 124.438 110.938 124.938 109.562 124.938H46.6875ZM97.9375 39.75C99.5208 39.3333 100.583 38.8333 101.125 38.25C101.708 37.625 102 36.3542 102 34.4375V21.5625C102 20.3125 101.708 19.4375 101.125 18.9375C100.583 18.3958 99.4375 18.3542 97.6875 18.8125L78.5 23.625C76.875 24 75.8125 24.5 75.3125 25.125C74.8125 25.7083 74.5625 26.9792 74.5625 28.9375V58.4375C74.5625 59.8958 74.375 60.8958 74 61.4375C73.6667 61.9375 72.6667 62.3958 71 62.8125L64.9375 64.375C61.9792 65.1667 59.4167 66.5 57.25 68.375C55.0833 70.2083 54 72.7292 54 75.9375C54 78.7292 54.9583 81.0208 56.875 82.8125C58.8333 84.6042 61.4792 85.5 64.8125 85.5C69.4792 85.5 73.25 84 76.125 81C79.0417 77.9583 80.5 74.0625 80.5 69.3125V46.875C80.5 45.6667 80.6458 44.8542 80.9375 44.4375C81.2708 43.9792 81.8125 43.6458 82.5625 43.4375L97.9375 39.75Z" fill="black"/>
</svg>
